<svg xmlns="http://www.w3.org/2000/svg" viewBox="0 0 512 512"><title>Artboard 142</title><g id="Shrimp"><path d="M298.66667,64H21.33333v42.66667A106.66694,106.66694,0,0,0,128,213.33333H277.33333a85.33334,85.33334,0,1,1,0,170.66667H170.66667c-64,0-64,64-64,64C64,448,64,490.66667,64,490.66667,170.66667,490.66667,234.66667,448,234.66667,448h64c106.03906,0,192-85.96094,192-192S404.70573,64,298.66667,64Z" style="fill:#cd3e36"/><rect x="149.33333" y="405.33333" width="42.66667" height="21.33333" style="fill:#d96c66"/><path d="M417.1875,378.70833,402.36458,363.375A148.13624,148.13624,0,0,0,448,256c0-82.34375-66.98958-149.33333-149.33333-149.33333H85.33333V85.33333H298.66667c94.10416,0,170.66666,76.5625,170.66666,170.66667A169.25788,169.25788,0,0,1,417.1875,378.70833Z" style="fill:#de807a"/><path d="M426.53,113.05339,323.125,216.45833l15.08333,15.08334,103.40495-103.405A192.59292,192.59292,0,0,0,426.53,113.05339Z" style="fill:#d2514a"/><path d="M277.33333,426.66667V384a85.33334,85.33334,0,1,0,0-170.66667H128A106.79223,106.79223,0,0,1,21.33333,106.66667V64H64v42.66667a64.07,64.07,0,0,0,64,64H277.33333a128,128,0,0,1,0,256Z" style="fill:#c82e25"/><path d="M352,258.15234a84.2332,84.2332,0,0,1,7.64974,19.181H489.41536A193.60557,193.60557,0,0,0,490.66667,256H352Z" style="fill:#d2514a"/><path d="M352,258.15234a84.2332,84.2332,0,0,1,7.64974,19.181h45.68359V256H352Z" style="fill:#cd3e36"/><path d="M437.40625,123.51042l-92.94792,92.94791,15.08334,15.08334,91.72656-91.72657A192.81288,192.81288,0,0,0,437.40625,123.51042Z" style="fill:#c82e25"/><path d="M329.40885,231.50781a85.33591,85.33591,0,0,1,15.08334,15.08334L380.875,210.20833,365.79167,195.125Z" style="fill:#c11107"/><path d="M407.70052,413.95052l-63.20833-63.20833a85.37949,85.37949,0,0,1-15.08334,15.08333L388.987,425.40365A191.78831,191.78831,0,0,0,407.70052,413.95052Z" style="fill:#d2514a"/><path d="M329.40885,365.82552l36.38282,36.38281L380.875,387.125l-36.38281-36.38281A85.37949,85.37949,0,0,1,329.40885,365.82552Z" style="fill:#cd3e36"/><path d="M131.78125,484.66667l-7.5625-41.98959c54.53125-9.83333,86.76042-30.16666,87.08333-30.375L221.75,405.33333h76.91667V448h-64C230.36458,450.76042,193.64583,473.51042,131.78125,484.66667Z" style="fill:#c82e25"/><path d="M160,128a53.39611,53.39611,0,0,1-53.33333-53.33333H128a32,32,0,1,0,64,0h21.33333A53.39611,53.39611,0,0,1,160,128Z" style="fill:#c11107"/><circle cx="160" cy="74.66667" r="32" style="fill:#2b1718"/><circle cx="181.33333" cy="74.66667" r="10.66667" style="fill:#afa8a8"/><polygon points="249.75 277.333 192 277.333 192 256 240.917 256 323.125 173.792 338.208 188.875 249.75 277.333" style="fill:#d96c66"/><rect x="320" y="298.66667" width="74.66667" height="21.33333" style="fill:#d96c66"/><polygon points="301.792 402.208 262.25 362.667 213.333 362.667 213.333 341.333 271.083 341.333 316.875 387.125 301.792 402.208" style="fill:#d96c66"/><rect x="296.0785" y="245.33447" width="90.50967" height="21.33105" transform="translate(-81.04512 316.33978) rotate(-45)" style="fill:#d96c66"/><rect x="256" y="64" width="21.33333" height="138.66667" style="fill:#cd3e36"/><rect x="256" y="170.66667" width="21.33333" height="42.66667" style="fill:#c82e25"/><rect x="234.66667" y="64" width="21.33333" height="149.33333" style="fill:#cd3e36"/><rect x="234.66667" y="64" width="21.33333" height="106.66667" style="fill:#d2514a"/><rect x="256" y="64" width="21.33333" height="149.33333" style="fill:#c82e25"/><rect x="256" y="170.66667" width="21.33333" height="42.66667" style="fill:#c11107"/><path d="M489.41536,277.33333H359.64974a84.60519,84.60519,0,0,1,3.01693,21.33334H485.74479A190.903,190.903,0,0,0,489.41536,277.33333Z" style="fill:#c82e25"/><path d="M362.66667,298.66667h42.66666V277.33333H359.64974A84.60519,84.60519,0,0,1,362.66667,298.66667Z" style="fill:#c11107"/><path d="M394.57552,422.15885,334.2487,361.832a85.1183,85.1183,0,0,1-17.86979,12.29688l58.21093,58.21093A190.78394,190.78394,0,0,0,394.57552,422.15885Z" style="fill:#c82e25"/><path d="M359.54167,387.125l-25.293-25.293a85.1183,85.1183,0,0,1-17.86979,12.29688l28.07942,28.07942Z" style="fill:#c11107"/><rect x="234.66667" y="384" width="21.33333" height="64" style="fill:#c11107"/><rect x="256" y="384" width="21.33333" height="64" style="fill:#d2514a"/><rect x="256" y="405.33333" width="21.33333" height="42.66667" style="fill:#cd3e36"/><rect x="234.66667" y="384" width="21.33333" height="21.33333" style="fill:#c82e25"/></g></svg>